<?xml version="1.0" encoding="UTF-8" standalone="no"?>
<!-- Created with Inkscape (http://www.inkscape.org/) -->

<svg
   width="100mm"
   height="100mm"
   viewBox="0 0 100 100"
   version="1.1"
   id="svg1152"
   xmlns="http://www.w3.org/2000/svg"
   xmlns:svg="http://www.w3.org/2000/svg">
  <defs
     id="defs1149" />
  <g
     id="g1078">
    <circle
       style="opacity:1;fill:#ffffff;stroke:#f2169a;stroke-width:6.31728;stroke-linejoin:round;stroke-opacity:0;paint-order:stroke fill markers"
       id="path847"
       cx="50.000042"
       cy="50"
       r="46.841358" />
    <g
       id="layer1"
       transform="translate(-31.999955,21.500001)">
      <circle
         style="opacity:0.100112;fill:#ffffff;fill-opacity:1;stroke:#f2169a;stroke-width:1.05144;stroke-linejoin:round;stroke-opacity:0;paint-order:stroke fill markers"
         id="path5237-1"
         cx="82.000008"
         cy="28.5"
         r="49.474281" />
      <path
         id="path7099-3-9-3-9-2-0"
         style="fill:#000000;fill-opacity:1;stroke-width:1;stroke-linejoin:round;stroke-miterlimit:4;stroke-dasharray:none;paint-order:stroke fill markers"
         d="M 81.999995,-21.49979 A 50,50 0 0 0 31.999955,28.49973 50,50 0 0 0 81.999995,78.49978 50,50 0 0 0 132.00004,28.49973 50,50 0 0 0 81.999995,-21.49979 Z m 0,3.99976 A 46,46 0 0 1 127.99978,28.49973 46,46 0 0 1 81.999995,74.50001 46,46 0 0 1 35.999715,28.49973 46,46 0 0 1 81.999995,-17.50003 Z" />
      <path
         id="path30249-0-2-4-4-6-4-5-1-2-8-9-4-5"
         style="opacity:0.99841;fill:#000000;fill-opacity:1;fill-rule:nonzero;stroke:#f2169a;stroke-width:1;stroke-linejoin:round;stroke-miterlimit:4;stroke-dasharray:none;stroke-opacity:0;paint-order:stroke fill markers"
         d="m 60.833255,-8.04162 a 9.0000898,9.0000898 0 0 0 -8.99996,8.99996 9.0000898,9.0000898 0 0 0 8.99996,8.99999 9.0000898,9.0000898 0 0 0 8.99996,-8.99999 9.0000898,9.0000898 0 0 0 -8.99996,-8.99996 z m 0,3.00035 a 6.0001578,6.0001578 0 0 1 6.00014,5.99961 6.0001578,6.0001578 0 0 1 -6.00014,6.00017 6.0001578,6.0001578 0 0 1 -5.99964,-6.00017 6.0001578,6.0001578 0 0 1 5.99964,-5.99961 z m 42.333495,-3.00035 a 9.0000898,9.0000898 0 0 0 -8.999955,8.99996 9.0000898,9.0000898 0 0 0 8.999955,8.99999 9.0000898,9.0000898 0 0 0 8.99996,-8.99999 9.0000898,9.0000898 0 0 0 -8.99996,-8.99996 z m 0,3.00035 a 6.0001578,6.0001578 0 0 1 6.00014,5.99961 6.0001578,6.0001578 0 0 1 -6.00014,6.00017 6.0001578,6.0001578 0 0 1 -5.999635,-6.00017 6.0001578,6.0001578 0 0 1 5.999635,-5.99961 z m 0,52.08293 a 9.0000898,9.0000898 0 0 0 -8.999955,8.99996 9.0000898,9.0000898 0 0 0 8.999955,8.99998 9.0000898,9.0000898 0 0 0 8.99996,-8.99998 9.0000898,9.0000898 0 0 0 -8.99996,-8.99996 z m 0,3.00035 a 6.0001578,6.0001578 0 0 1 6.00014,5.99961 6.0001578,6.0001578 0 0 1 -6.00014,6.00017 6.0001578,6.0001578 0 0 1 -5.999635,-6.00017 6.0001578,6.0001578 0 0 1 5.999635,-5.99961 z M 60.833255,47.04166 a 9.0000898,9.0000898 0 0 0 -8.99996,8.99996 9.0000898,9.0000898 0 0 0 8.99996,8.99998 9.0000898,9.0000898 0 0 0 8.99996,-8.99998 9.0000898,9.0000898 0 0 0 -8.99996,-8.99996 z m 0,3.00035 a 6.0001578,6.0001578 0 0 1 6.00014,5.99961 6.0001578,6.0001578 0 0 1 -6.00014,6.00017 6.0001578,6.0001578 0 0 1 -5.99964,-6.00017 6.0001578,6.0001578 0 0 1 5.99964,-5.99961 z m 8.34843,-47.5159 a 8.4999998,8.4999998 0 0 1 -8.34834,6.93237 8.4999998,8.4999998 0 0 1 -3.59098,-0.79943 l 38.12479,50.74626 a 8.4999998,8.4999998 0 0 1 -0.70022,-3.36362 8.4999998,8.4999998 0 0 1 8.337995,-8.49405 z m 27.37041,3.76825 V 50.7056 a 8.4999998,8.4999998 0 0 1 6.614575,-3.16416 8.4999998,8.4999998 0 0 1 6.61459,3.1626 V 6.29436 a 8.4999998,8.4999998 0 0 1 -6.61459,3.16412 8.4999998,8.4999998 0 0 1 -6.614575,-3.16412 z m -42.33334,0 V 50.7056 a 8.4999998,8.4999998 0 0 1 6.61459,-3.16416 8.4999998,8.4999998 0 0 1 6.61458,3.16312 V 6.29436 a 8.4999998,8.4999998 0 0 1 -6.61458,3.16412 8.4999998,8.4999998 0 0 1 -6.61459,-3.16412 z" />
    </g>
  </g>
</svg>
