<?xml version="1.0" encoding="UTF-8" standalone="no"?>
<!-- Created with Inkscape (http://www.inkscape.org/) -->

<svg
   width="100mm"
   height="100mm"
   viewBox="0 0 100 100"
   version="1.1"
   id="svg1152"
   xmlns="http://www.w3.org/2000/svg"
   xmlns:svg="http://www.w3.org/2000/svg">
  <defs
     id="defs1149" />
  <g
     id="layer1"
     transform="translate(-57.99991,210.5)">
    <circle
       style="fill:#000000;fill-opacity:1;stroke:#f2169a;stroke-width:1.05144;stroke-linejoin:round;stroke-opacity:0;paint-order:stroke fill markers"
       id="path5237-1-1"
       cx="107.99996"
       cy="-160.5"
       r="49.474281" />
    <path
       id="path7099-3-9-3-9-2-0-0"
       style="fill:#000000;fill-opacity:1;stroke-width:1;stroke-linejoin:round;stroke-miterlimit:4;stroke-dasharray:none;paint-order:stroke fill markers"
       d="m 107.99995,-210.49978 a 50,50 0 0 0 -50.00004,49.99952 50,50 0 0 0 50.00004,50.00005 A 50,50 0 0 0 158,-160.50026 50,50 0 0 0 107.99995,-210.49978 Z m 0,3.99976 a 46,46 0 0 1 45.99978,45.99976 46,46 0 0 1 -45.99978,46.00028 46,46 0 0 1 -46.00028,-46.00028 46,46 0 0 1 46.00028,-45.99976 z" />
    <path
       id="path30249-0-2-4-4-6-4-5-1-2-8-9-4-5-8"
       style="opacity:0.99841;fill:#ffffff;fill-opacity:1;fill-rule:nonzero;stroke:#f2169a;stroke-width:1;stroke-linejoin:round;stroke-miterlimit:4;stroke-dasharray:none;stroke-opacity:0;paint-order:stroke fill markers"
       d="m 86.83321,-197.04161 a 9.0000898,9.0000898 0 0 0 -8.99996,8.99996 9.0000898,9.0000898 0 0 0 8.99996,8.99999 9.0000898,9.0000898 0 0 0 8.99996,-8.99999 9.0000898,9.0000898 0 0 0 -8.99996,-8.99996 z m 0,3.00035 a 6.0001578,6.0001578 0 0 1 6.00014,5.99961 6.0001578,6.0001578 0 0 1 -6.00014,6.00017 6.0001578,6.0001578 0 0 1 -5.99964,-6.00017 6.0001578,6.0001578 0 0 1 5.99964,-5.99961 z m 42.3335,-3.00035 a 9.0000898,9.0000898 0 0 0 -8.99996,8.99996 9.0000898,9.0000898 0 0 0 8.99996,8.99999 9.0000898,9.0000898 0 0 0 8.99996,-8.99999 9.0000898,9.0000898 0 0 0 -8.99996,-8.99996 z m 0,3.00035 a 6.0001578,6.0001578 0 0 1 6.00014,5.99961 6.0001578,6.0001578 0 0 1 -6.00014,6.00017 6.0001578,6.0001578 0 0 1 -5.99964,-6.00017 6.0001578,6.0001578 0 0 1 5.99964,-5.99961 z m 0,52.08293 a 9.0000898,9.0000898 0 0 0 -8.99996,8.99996 9.0000898,9.0000898 0 0 0 8.99996,8.99998 9.0000898,9.0000898 0 0 0 8.99996,-8.99998 9.0000898,9.0000898 0 0 0 -8.99996,-8.99996 z m 0,3.00035 a 6.0001578,6.0001578 0 0 1 6.00014,5.99961 6.0001578,6.0001578 0 0 1 -6.00014,6.00017 6.0001578,6.0001578 0 0 1 -5.99964,-6.00017 6.0001578,6.0001578 0 0 1 5.99964,-5.99961 z m -42.3335,-3.00035 a 9.0000898,9.0000898 0 0 0 -8.99996,8.99996 9.0000898,9.0000898 0 0 0 8.99996,8.99998 9.0000898,9.0000898 0 0 0 8.99996,-8.99998 9.0000898,9.0000898 0 0 0 -8.99996,-8.99996 z m 0,3.00035 a 6.0001578,6.0001578 0 0 1 6.00014,5.99961 6.0001578,6.0001578 0 0 1 -6.00014,6.00017 6.0001578,6.0001578 0 0 1 -5.99964,-6.00017 6.0001578,6.0001578 0 0 1 5.99964,-5.99961 z m 8.34843,-47.5159 a 8.4999998,8.4999998 0 0 1 -8.34834,6.93237 8.4999998,8.4999998 0 0 1 -3.59098,-0.79943 l 38.12479,50.74626 a 8.4999998,8.4999998 0 0 1 -0.70022,-3.36362 8.4999998,8.4999998 0 0 1 8.338,-8.49405 z m 27.37041,3.76825 v 44.41124 a 8.4999998,8.4999998 0 0 1 6.61458,-3.16416 8.4999998,8.4999998 0 0 1 6.61458,3.1626 v -44.40968 a 8.4999998,8.4999998 0 0 1 -6.61458,3.16412 8.4999998,8.4999998 0 0 1 -6.61458,-3.16412 z m -42.33334,0 v 44.41124 a 8.4999998,8.4999998 0 0 1 6.61459,-3.16416 8.4999998,8.4999998 0 0 1 6.61458,3.16312 v -44.4102 a 8.4999998,8.4999998 0 0 1 -6.61458,3.16412 8.4999998,8.4999998 0 0 1 -6.61459,-3.16412 z" />
  </g>
</svg>
